<?xml version="1.0" encoding="utf-8" standalone="no"?>
<!DOCTYPE svg PUBLIC "-//W3C//DTD SVG 1.1//EN"
  "http://www.w3.org/Graphics/SVG/1.1/DTD/svg11.dtd">
<!-- Created with matplotlib (https://matplotlib.org/) -->
<svg height="345.6pt" version="1.1" viewBox="0 0 460.8 345.6" width="460.8pt" xmlns="http://www.w3.org/2000/svg" xmlns:xlink="http://www.w3.org/1999/xlink">
 <defs>
  <style type="text/css">
*{stroke-linecap:butt;stroke-linejoin:round;}
  </style>
 </defs>
 <g id="figure_1">
  <g id="patch_1">
   <path d="M 0 345.6 
L 460.8 345.6 
L 460.8 0 
L 0 0 
z
" style="fill:#ffffff;"/>
  </g>
  <g id="axes_1">
   <g id="patch_2">
    <path d="M 57.6 307.584 
L 414.72 307.584 
L 414.72 41.472 
L 57.6 41.472 
z
" style="fill:#ffffff;"/>
   </g>
   <g id="matplotlib.axis_1">
    <g id="xtick_1">
     <g id="line2d_1">
      <defs>
       <path d="M 0 0 
L 0 3.5 
" id="mbab7e54bb4" style="stroke:#000000;stroke-width:0.8;"/>
      </defs>
      <g>
       <use style="stroke:#000000;stroke-width:0.8;" x="72.193058" xlink:href="#mbab7e54bb4" y="307.584"/>
      </g>
     </g>
     <g id="text_1">
      <!-- −1.5 -->
      <defs>
       <path d="M 10.59375 35.5 
L 73.1875 35.5 
L 73.1875 27.203125 
L 10.59375 27.203125 
z
" id="DejaVuSans-8722"/>
       <path d="M 12.40625 8.296875 
L 28.515625 8.296875 
L 28.515625 63.921875 
L 10.984375 60.40625 
L 10.984375 69.390625 
L 28.421875 72.90625 
L 38.28125 72.90625 
L 38.28125 8.296875 
L 54.390625 8.296875 
L 54.390625 0 
L 12.40625 0 
z
" id="DejaVuSans-49"/>
       <path d="M 10.6875 12.40625 
L 21 12.40625 
L 21 0 
L 10.6875 0 
z
" id="DejaVuSans-46"/>
       <path d="M 10.796875 72.90625 
L 49.515625 72.90625 
L 49.515625 64.59375 
L 19.828125 64.59375 
L 19.828125 46.734375 
Q 21.96875 47.46875 24.109375 47.828125 
Q 26.265625 48.1875 28.421875 48.1875 
Q 40.625 48.1875 47.75 41.5 
Q 54.890625 34.8125 54.890625 23.390625 
Q 54.890625 11.625 47.5625 5.09375 
Q 40.234375 -1.421875 26.90625 -1.421875 
Q 22.3125 -1.421875 17.546875 -0.640625 
Q 12.796875 0.140625 7.71875 1.703125 
L 7.71875 11.625 
Q 12.109375 9.234375 16.796875 8.0625 
Q 21.484375 6.890625 26.703125 6.890625 
Q 35.15625 6.890625 40.078125 11.328125 
Q 45.015625 15.765625 45.015625 23.390625 
Q 45.015625 31 40.078125 35.4375 
Q 35.15625 39.890625 26.703125 39.890625 
Q 22.75 39.890625 18.8125 39.015625 
Q 14.890625 38.140625 10.796875 36.28125 
z
" id="DejaVuSans-53"/>
      </defs>
      <g transform="translate(60.051652 322.182437)scale(0.1 -0.1)">
       <use xlink:href="#DejaVuSans-8722"/>
       <use x="83.789062" xlink:href="#DejaVuSans-49"/>
       <use x="147.412109" xlink:href="#DejaVuSans-46"/>
       <use x="179.199219" xlink:href="#DejaVuSans-53"/>
      </g>
     </g>
    </g>
    <g id="xtick_2">
     <g id="line2d_2">
      <g>
       <use style="stroke:#000000;stroke-width:0.8;" x="126.848705" xlink:href="#mbab7e54bb4" y="307.584"/>
      </g>
     </g>
     <g id="text_2">
      <!-- −1.0 -->
      <defs>
       <path d="M 31.78125 66.40625 
Q 24.171875 66.40625 20.328125 58.90625 
Q 16.5 51.421875 16.5 36.375 
Q 16.5 21.390625 20.328125 13.890625 
Q 24.171875 6.390625 31.78125 6.390625 
Q 39.453125 6.390625 43.28125 13.890625 
Q 47.125 21.390625 47.125 36.375 
Q 47.125 51.421875 43.28125 58.90625 
Q 39.453125 66.40625 31.78125 66.40625 
z
M 31.78125 74.21875 
Q 44.046875 74.21875 50.515625 64.515625 
Q 56.984375 54.828125 56.984375 36.375 
Q 56.984375 17.96875 50.515625 8.265625 
Q 44.046875 -1.421875 31.78125 -1.421875 
Q 19.53125 -1.421875 13.0625 8.265625 
Q 6.59375 17.96875 6.59375 36.375 
Q 6.59375 54.828125 13.0625 64.515625 
Q 19.53125 74.21875 31.78125 74.21875 
z
" id="DejaVuSans-48"/>
      </defs>
      <g transform="translate(114.707299 322.182437)scale(0.1 -0.1)">
       <use xlink:href="#DejaVuSans-8722"/>
       <use x="83.789062" xlink:href="#DejaVuSans-49"/>
       <use x="147.412109" xlink:href="#DejaVuSans-46"/>
       <use x="179.199219" xlink:href="#DejaVuSans-48"/>
      </g>
     </g>
    </g>
    <g id="xtick_3">
     <g id="line2d_3">
      <g>
       <use style="stroke:#000000;stroke-width:0.8;" x="181.504353" xlink:href="#mbab7e54bb4" y="307.584"/>
      </g>
     </g>
     <g id="text_3">
      <!-- −0.5 -->
      <g transform="translate(169.362946 322.182437)scale(0.1 -0.1)">
       <use xlink:href="#DejaVuSans-8722"/>
       <use x="83.789062" xlink:href="#DejaVuSans-48"/>
       <use x="147.412109" xlink:href="#DejaVuSans-46"/>
       <use x="179.199219" xlink:href="#DejaVuSans-53"/>
      </g>
     </g>
    </g>
    <g id="xtick_4">
     <g id="line2d_4">
      <g>
       <use style="stroke:#000000;stroke-width:0.8;" x="236.16" xlink:href="#mbab7e54bb4" y="307.584"/>
      </g>
     </g>
     <g id="text_4">
      <!-- 0.0 -->
      <g transform="translate(228.208438 322.182437)scale(0.1 -0.1)">
       <use xlink:href="#DejaVuSans-48"/>
       <use x="63.623047" xlink:href="#DejaVuSans-46"/>
       <use x="95.410156" xlink:href="#DejaVuSans-48"/>
      </g>
     </g>
    </g>
    <g id="xtick_5">
     <g id="line2d_5">
      <g>
       <use style="stroke:#000000;stroke-width:0.8;" x="290.815647" xlink:href="#mbab7e54bb4" y="307.584"/>
      </g>
     </g>
     <g id="text_5">
      <!-- 0.5 -->
      <g transform="translate(282.864085 322.182437)scale(0.1 -0.1)">
       <use xlink:href="#DejaVuSans-48"/>
       <use x="63.623047" xlink:href="#DejaVuSans-46"/>
       <use x="95.410156" xlink:href="#DejaVuSans-53"/>
      </g>
     </g>
    </g>
    <g id="xtick_6">
     <g id="line2d_6">
      <g>
       <use style="stroke:#000000;stroke-width:0.8;" x="345.471295" xlink:href="#mbab7e54bb4" y="307.584"/>
      </g>
     </g>
     <g id="text_6">
      <!-- 1.0 -->
      <g transform="translate(337.519732 322.182437)scale(0.1 -0.1)">
       <use xlink:href="#DejaVuSans-49"/>
       <use x="63.623047" xlink:href="#DejaVuSans-46"/>
       <use x="95.410156" xlink:href="#DejaVuSans-48"/>
      </g>
     </g>
    </g>
    <g id="xtick_7">
     <g id="line2d_7">
      <g>
       <use style="stroke:#000000;stroke-width:0.8;" x="400.126942" xlink:href="#mbab7e54bb4" y="307.584"/>
      </g>
     </g>
     <g id="text_7">
      <!-- 1.5 -->
      <g transform="translate(392.17538 322.182437)scale(0.1 -0.1)">
       <use xlink:href="#DejaVuSans-49"/>
       <use x="63.623047" xlink:href="#DejaVuSans-46"/>
       <use x="95.410156" xlink:href="#DejaVuSans-53"/>
      </g>
     </g>
    </g>
    <g id="text_8">
     <!-- Impact parameter -->
     <defs>
      <path d="M 9.8125 72.90625 
L 19.671875 72.90625 
L 19.671875 0 
L 9.8125 0 
z
" id="DejaVuSans-73"/>
      <path d="M 52 44.1875 
Q 55.375 50.25 60.0625 53.125 
Q 64.75 56 71.09375 56 
Q 79.640625 56 84.28125 50.015625 
Q 88.921875 44.046875 88.921875 33.015625 
L 88.921875 0 
L 79.890625 0 
L 79.890625 32.71875 
Q 79.890625 40.578125 77.09375 44.375 
Q 74.3125 48.1875 68.609375 48.1875 
Q 61.625 48.1875 57.5625 43.546875 
Q 53.515625 38.921875 53.515625 30.90625 
L 53.515625 0 
L 44.484375 0 
L 44.484375 32.71875 
Q 44.484375 40.625 41.703125 44.40625 
Q 38.921875 48.1875 33.109375 48.1875 
Q 26.21875 48.1875 22.15625 43.53125 
Q 18.109375 38.875 18.109375 30.90625 
L 18.109375 0 
L 9.078125 0 
L 9.078125 54.6875 
L 18.109375 54.6875 
L 18.109375 46.1875 
Q 21.1875 51.21875 25.484375 53.609375 
Q 29.78125 56 35.6875 56 
Q 41.65625 56 45.828125 52.96875 
Q 50 49.953125 52 44.1875 
z
" id="DejaVuSans-109"/>
      <path d="M 18.109375 8.203125 
L 18.109375 -20.796875 
L 9.078125 -20.796875 
L 9.078125 54.6875 
L 18.109375 54.6875 
L 18.109375 46.390625 
Q 20.953125 51.265625 25.265625 53.625 
Q 29.59375 56 35.59375 56 
Q 45.5625 56 51.78125 48.09375 
Q 58.015625 40.1875 58.015625 27.296875 
Q 58.015625 14.40625 51.78125 6.484375 
Q 45.5625 -1.421875 35.59375 -1.421875 
Q 29.59375 -1.421875 25.265625 0.953125 
Q 20.953125 3.328125 18.109375 8.203125 
z
M 48.6875 27.296875 
Q 48.6875 37.203125 44.609375 42.84375 
Q 40.53125 48.484375 33.40625 48.484375 
Q 26.265625 48.484375 22.1875 42.84375 
Q 18.109375 37.203125 18.109375 27.296875 
Q 18.109375 17.390625 22.1875 11.75 
Q 26.265625 6.109375 33.40625 6.109375 
Q 40.53125 6.109375 44.609375 11.75 
Q 48.6875 17.390625 48.6875 27.296875 
z
" id="DejaVuSans-112"/>
      <path d="M 34.28125 27.484375 
Q 23.390625 27.484375 19.1875 25 
Q 14.984375 22.515625 14.984375 16.5 
Q 14.984375 11.71875 18.140625 8.90625 
Q 21.296875 6.109375 26.703125 6.109375 
Q 34.1875 6.109375 38.703125 11.40625 
Q 43.21875 16.703125 43.21875 25.484375 
L 43.21875 27.484375 
z
M 52.203125 31.203125 
L 52.203125 0 
L 43.21875 0 
L 43.21875 8.296875 
Q 40.140625 3.328125 35.546875 0.953125 
Q 30.953125 -1.421875 24.3125 -1.421875 
Q 15.921875 -1.421875 10.953125 3.296875 
Q 6 8.015625 6 15.921875 
Q 6 25.140625 12.171875 29.828125 
Q 18.359375 34.515625 30.609375 34.515625 
L 43.21875 34.515625 
L 43.21875 35.40625 
Q 43.21875 41.609375 39.140625 45 
Q 35.0625 48.390625 27.6875 48.390625 
Q 23 48.390625 18.546875 47.265625 
Q 14.109375 46.140625 10.015625 43.890625 
L 10.015625 52.203125 
Q 14.9375 54.109375 19.578125 55.046875 
Q 24.21875 56 28.609375 56 
Q 40.484375 56 46.34375 49.84375 
Q 52.203125 43.703125 52.203125 31.203125 
z
" id="DejaVuSans-97"/>
      <path d="M 48.78125 52.59375 
L 48.78125 44.1875 
Q 44.96875 46.296875 41.140625 47.34375 
Q 37.3125 48.390625 33.40625 48.390625 
Q 24.65625 48.390625 19.8125 42.84375 
Q 14.984375 37.3125 14.984375 27.296875 
Q 14.984375 17.28125 19.8125 11.734375 
Q 24.65625 6.203125 33.40625 6.203125 
Q 37.3125 6.203125 41.140625 7.25 
Q 44.96875 8.296875 48.78125 10.40625 
L 48.78125 2.09375 
Q 45.015625 0.34375 40.984375 -0.53125 
Q 36.96875 -1.421875 32.421875 -1.421875 
Q 20.0625 -1.421875 12.78125 6.34375 
Q 5.515625 14.109375 5.515625 27.296875 
Q 5.515625 40.671875 12.859375 48.328125 
Q 20.21875 56 33.015625 56 
Q 37.15625 56 41.109375 55.140625 
Q 45.0625 54.296875 48.78125 52.59375 
z
" id="DejaVuSans-99"/>
      <path d="M 18.3125 70.21875 
L 18.3125 54.6875 
L 36.8125 54.6875 
L 36.8125 47.703125 
L 18.3125 47.703125 
L 18.3125 18.015625 
Q 18.3125 11.328125 20.140625 9.421875 
Q 21.96875 7.515625 27.59375 7.515625 
L 36.8125 7.515625 
L 36.8125 0 
L 27.59375 0 
Q 17.1875 0 13.234375 3.875 
Q 9.28125 7.765625 9.28125 18.015625 
L 9.28125 47.703125 
L 2.6875 47.703125 
L 2.6875 54.6875 
L 9.28125 54.6875 
L 9.28125 70.21875 
z
" id="DejaVuSans-116"/>
      <path id="DejaVuSans-32"/>
      <path d="M 41.109375 46.296875 
Q 39.59375 47.171875 37.8125 47.578125 
Q 36.03125 48 33.890625 48 
Q 26.265625 48 22.1875 43.046875 
Q 18.109375 38.09375 18.109375 28.8125 
L 18.109375 0 
L 9.078125 0 
L 9.078125 54.6875 
L 18.109375 54.6875 
L 18.109375 46.1875 
Q 20.953125 51.171875 25.484375 53.578125 
Q 30.03125 56 36.53125 56 
Q 37.453125 56 38.578125 55.875 
Q 39.703125 55.765625 41.0625 55.515625 
z
" id="DejaVuSans-114"/>
      <path d="M 56.203125 29.59375 
L 56.203125 25.203125 
L 14.890625 25.203125 
Q 15.484375 15.921875 20.484375 11.0625 
Q 25.484375 6.203125 34.421875 6.203125 
Q 39.59375 6.203125 44.453125 7.46875 
Q 49.3125 8.734375 54.109375 11.28125 
L 54.109375 2.78125 
Q 49.265625 0.734375 44.1875 -0.34375 
Q 39.109375 -1.421875 33.890625 -1.421875 
Q 20.796875 -1.421875 13.15625 6.1875 
Q 5.515625 13.8125 5.515625 26.8125 
Q 5.515625 40.234375 12.765625 48.109375 
Q 20.015625 56 32.328125 56 
Q 43.359375 56 49.78125 48.890625 
Q 56.203125 41.796875 56.203125 29.59375 
z
M 47.21875 32.234375 
Q 47.125 39.59375 43.09375 43.984375 
Q 39.0625 48.390625 32.421875 48.390625 
Q 24.90625 48.390625 20.390625 44.140625 
Q 15.875 39.890625 15.1875 32.171875 
z
" id="DejaVuSans-101"/>
     </defs>
     <g transform="translate(190.881094 335.860562)scale(0.1 -0.1)">
      <use xlink:href="#DejaVuSans-73"/>
      <use x="29.492188" xlink:href="#DejaVuSans-109"/>
      <use x="126.904297" xlink:href="#DejaVuSans-112"/>
      <use x="190.380859" xlink:href="#DejaVuSans-97"/>
      <use x="251.660156" xlink:href="#DejaVuSans-99"/>
      <use x="306.640625" xlink:href="#DejaVuSans-116"/>
      <use x="345.849609" xlink:href="#DejaVuSans-32"/>
      <use x="377.636719" xlink:href="#DejaVuSans-112"/>
      <use x="441.113281" xlink:href="#DejaVuSans-97"/>
      <use x="502.392578" xlink:href="#DejaVuSans-114"/>
      <use x="543.505859" xlink:href="#DejaVuSans-97"/>
      <use x="604.785156" xlink:href="#DejaVuSans-109"/>
      <use x="702.197266" xlink:href="#DejaVuSans-101"/>
      <use x="763.720703" xlink:href="#DejaVuSans-116"/>
      <use x="802.929688" xlink:href="#DejaVuSans-101"/>
      <use x="864.453125" xlink:href="#DejaVuSans-114"/>
     </g>
    </g>
   </g>
   <g id="matplotlib.axis_2">
    <g id="ytick_1">
     <g id="line2d_8">
      <defs>
       <path d="M 0 0 
L -3.5 0 
" id="m59b662eb91" style="stroke:#000000;stroke-width:0.8;"/>
      </defs>
      <g>
       <use style="stroke:#000000;stroke-width:0.8;" x="57.6" xlink:href="#m59b662eb91" y="301.705718"/>
      </g>
     </g>
     <g id="text_9">
      <!-- −0.25 -->
      <defs>
       <path d="M 19.1875 8.296875 
L 53.609375 8.296875 
L 53.609375 0 
L 7.328125 0 
L 7.328125 8.296875 
Q 12.9375 14.109375 22.625 23.890625 
Q 32.328125 33.6875 34.8125 36.53125 
Q 39.546875 41.84375 41.421875 45.53125 
Q 43.3125 49.21875 43.3125 52.78125 
Q 43.3125 58.59375 39.234375 62.25 
Q 35.15625 65.921875 28.609375 65.921875 
Q 23.96875 65.921875 18.8125 64.3125 
Q 13.671875 62.703125 7.8125 59.421875 
L 7.8125 69.390625 
Q 13.765625 71.78125 18.9375 73 
Q 24.125 74.21875 28.421875 74.21875 
Q 39.75 74.21875 46.484375 68.546875 
Q 53.21875 62.890625 53.21875 53.421875 
Q 53.21875 48.921875 51.53125 44.890625 
Q 49.859375 40.875 45.40625 35.40625 
Q 44.1875 33.984375 37.640625 27.21875 
Q 31.109375 20.453125 19.1875 8.296875 
z
" id="DejaVuSans-50"/>
      </defs>
      <g transform="translate(19.954687 305.504937)scale(0.1 -0.1)">
       <use xlink:href="#DejaVuSans-8722"/>
       <use x="83.789062" xlink:href="#DejaVuSans-48"/>
       <use x="147.412109" xlink:href="#DejaVuSans-46"/>
       <use x="179.199219" xlink:href="#DejaVuSans-50"/>
       <use x="242.822266" xlink:href="#DejaVuSans-53"/>
      </g>
     </g>
    </g>
    <g id="ytick_2">
     <g id="line2d_9">
      <g>
       <use style="stroke:#000000;stroke-width:0.8;" x="57.6" xlink:href="#m59b662eb91" y="260.717941"/>
      </g>
     </g>
     <g id="text_10">
      <!-- −0.20 -->
      <g transform="translate(19.954687 264.51716)scale(0.1 -0.1)">
       <use xlink:href="#DejaVuSans-8722"/>
       <use x="83.789062" xlink:href="#DejaVuSans-48"/>
       <use x="147.412109" xlink:href="#DejaVuSans-46"/>
       <use x="179.199219" xlink:href="#DejaVuSans-50"/>
       <use x="242.822266" xlink:href="#DejaVuSans-48"/>
      </g>
     </g>
    </g>
    <g id="ytick_3">
     <g id="line2d_10">
      <g>
       <use style="stroke:#000000;stroke-width:0.8;" x="57.6" xlink:href="#m59b662eb91" y="219.730164"/>
      </g>
     </g>
     <g id="text_11">
      <!-- −0.15 -->
      <g transform="translate(19.954687 223.529383)scale(0.1 -0.1)">
       <use xlink:href="#DejaVuSans-8722"/>
       <use x="83.789062" xlink:href="#DejaVuSans-48"/>
       <use x="147.412109" xlink:href="#DejaVuSans-46"/>
       <use x="179.199219" xlink:href="#DejaVuSans-49"/>
       <use x="242.822266" xlink:href="#DejaVuSans-53"/>
      </g>
     </g>
    </g>
    <g id="ytick_4">
     <g id="line2d_11">
      <g>
       <use style="stroke:#000000;stroke-width:0.8;" x="57.6" xlink:href="#m59b662eb91" y="178.742387"/>
      </g>
     </g>
     <g id="text_12">
      <!-- −0.10 -->
      <g transform="translate(19.954687 182.541606)scale(0.1 -0.1)">
       <use xlink:href="#DejaVuSans-8722"/>
       <use x="83.789062" xlink:href="#DejaVuSans-48"/>
       <use x="147.412109" xlink:href="#DejaVuSans-46"/>
       <use x="179.199219" xlink:href="#DejaVuSans-49"/>
       <use x="242.822266" xlink:href="#DejaVuSans-48"/>
      </g>
     </g>
    </g>
    <g id="ytick_5">
     <g id="line2d_12">
      <g>
       <use style="stroke:#000000;stroke-width:0.8;" x="57.6" xlink:href="#m59b662eb91" y="137.75461"/>
      </g>
     </g>
     <g id="text_13">
      <!-- −0.05 -->
      <g transform="translate(19.954687 141.553829)scale(0.1 -0.1)">
       <use xlink:href="#DejaVuSans-8722"/>
       <use x="83.789062" xlink:href="#DejaVuSans-48"/>
       <use x="147.412109" xlink:href="#DejaVuSans-46"/>
       <use x="179.199219" xlink:href="#DejaVuSans-48"/>
       <use x="242.822266" xlink:href="#DejaVuSans-53"/>
      </g>
     </g>
    </g>
    <g id="ytick_6">
     <g id="line2d_13">
      <g>
       <use style="stroke:#000000;stroke-width:0.8;" x="57.6" xlink:href="#m59b662eb91" y="96.766833"/>
      </g>
     </g>
     <g id="text_14">
      <!-- 0.00 -->
      <g transform="translate(28.334375 100.566052)scale(0.1 -0.1)">
       <use xlink:href="#DejaVuSans-48"/>
       <use x="63.623047" xlink:href="#DejaVuSans-46"/>
       <use x="95.410156" xlink:href="#DejaVuSans-48"/>
       <use x="159.033203" xlink:href="#DejaVuSans-48"/>
      </g>
     </g>
    </g>
    <g id="ytick_7">
     <g id="line2d_14">
      <g>
       <use style="stroke:#000000;stroke-width:0.8;" x="57.6" xlink:href="#m59b662eb91" y="55.779056"/>
      </g>
     </g>
     <g id="text_15">
      <!-- 0.05 -->
      <g transform="translate(28.334375 59.578275)scale(0.1 -0.1)">
       <use xlink:href="#DejaVuSans-48"/>
       <use x="63.623047" xlink:href="#DejaVuSans-46"/>
       <use x="95.410156" xlink:href="#DejaVuSans-48"/>
       <use x="159.033203" xlink:href="#DejaVuSans-53"/>
      </g>
     </g>
    </g>
    <g id="text_16">
     <!-- Derivative -->
     <defs>
      <path d="M 19.671875 64.796875 
L 19.671875 8.109375 
L 31.59375 8.109375 
Q 46.6875 8.109375 53.6875 14.9375 
Q 60.6875 21.78125 60.6875 36.53125 
Q 60.6875 51.171875 53.6875 57.984375 
Q 46.6875 64.796875 31.59375 64.796875 
z
M 9.8125 72.90625 
L 30.078125 72.90625 
Q 51.265625 72.90625 61.171875 64.09375 
Q 71.09375 55.28125 71.09375 36.53125 
Q 71.09375 17.671875 61.125 8.828125 
Q 51.171875 0 30.078125 0 
L 9.8125 0 
z
" id="DejaVuSans-68"/>
      <path d="M 9.421875 54.6875 
L 18.40625 54.6875 
L 18.40625 0 
L 9.421875 0 
z
M 9.421875 75.984375 
L 18.40625 75.984375 
L 18.40625 64.59375 
L 9.421875 64.59375 
z
" id="DejaVuSans-105"/>
      <path d="M 2.984375 54.6875 
L 12.5 54.6875 
L 29.59375 8.796875 
L 46.6875 54.6875 
L 56.203125 54.6875 
L 35.6875 0 
L 23.484375 0 
z
" id="DejaVuSans-118"/>
     </defs>
     <g transform="translate(13.875 200.307687)rotate(-90)scale(0.1 -0.1)">
      <use xlink:href="#DejaVuSans-68"/>
      <use x="77.001953" xlink:href="#DejaVuSans-101"/>
      <use x="138.525391" xlink:href="#DejaVuSans-114"/>
      <use x="179.638672" xlink:href="#DejaVuSans-105"/>
      <use x="207.421875" xlink:href="#DejaVuSans-118"/>
      <use x="266.601562" xlink:href="#DejaVuSans-97"/>
      <use x="327.880859" xlink:href="#DejaVuSans-116"/>
      <use x="367.089844" xlink:href="#DejaVuSans-105"/>
      <use x="394.873047" xlink:href="#DejaVuSans-118"/>
      <use x="454.052734" xlink:href="#DejaVuSans-101"/>
     </g>
    </g>
   </g>
   <g id="line2d_15">
    <path clip-path="url(#p13fcaa0e1a)" d="M 73.832727 96.766833 
L 77.112066 96.766833 
L 80.391405 96.766833 
L 83.670744 96.766833 
L 86.950083 96.766833 
L 90.229421 96.766833 
L 93.50876 96.766833 
L 96.788099 96.766833 
L 100.067438 96.766833 
L 103.346777 96.766833 
L 106.626116 96.766833 
L 109.905455 96.766833 
L 113.184793 96.766833 
L 116.464132 104.647751 
L 119.743471 123.830976 
L 123.02281 139.032438 
L 126.302149 153.604977 
L 129.581488 168.542662 
L 132.860826 184.874042 
L 136.140165 205.177061 
L 139.419504 232.218604 
L 142.698843 241.426615 
L 145.978182 248.402292 
L 149.257521 254.128116 
L 152.53686 258.992127 
L 155.816198 263.206719 
L 159.095537 266.906295 
L 162.374876 270.183434 
L 165.654215 273.105588 
L 168.933554 275.723904 
L 172.212893 278.078341 
L 175.492231 280.200844 
L 178.77157 282.117422 
L 182.050909 283.849556 
L 185.330248 285.415202 
L 188.609587 286.829503 
L 191.888926 288.105331 
L 195.168264 289.253683 
L 198.447603 290.283994 
L 201.726942 291.204377 
L 205.006281 292.021814 
L 208.28562 292.7423 
L 211.564959 293.370972 
L 214.844298 293.9122 
L 218.123636 294.369664 
L 221.402975 294.74642 
L 224.682314 295.044944 
L 227.961653 295.267177 
L 231.240992 295.414548 
L 234.520331 295.488 
L 237.799669 295.488 
L 241.079008 295.414548 
L 244.358347 295.267177 
L 247.637686 295.044944 
L 250.917025 294.74642 
L 254.196364 294.369664 
L 257.475702 293.9122 
L 260.755041 293.370972 
L 264.03438 292.7423 
L 267.313719 292.021814 
L 270.593058 291.204377 
L 273.872397 290.283994 
L 277.151736 289.253683 
L 280.431074 288.105331 
L 283.710413 286.829503 
L 286.989752 285.415202 
L 290.269091 283.849556 
L 293.54843 282.117422 
L 296.827769 280.200844 
L 300.107107 278.078341 
L 303.386446 275.723904 
L 306.665785 273.105588 
L 309.945124 270.183434 
L 313.224463 266.906295 
L 316.503802 263.206719 
L 319.78314 258.992127 
L 323.062479 254.128116 
L 326.341818 248.402292 
L 329.621157 241.426615 
L 332.900496 232.218604 
L 336.179835 205.177061 
L 339.459174 184.874042 
L 342.738512 168.542662 
L 346.017851 153.604977 
L 349.29719 139.032438 
L 352.576529 123.830976 
L 355.855868 104.647751 
L 359.135207 96.766833 
L 362.414545 96.766833 
L 365.693884 96.766833 
L 368.973223 96.766833 
L 372.252562 96.766833 
L 375.531901 96.766833 
L 378.81124 96.766833 
L 382.090579 96.766833 
L 385.369917 96.766833 
L 388.649256 96.766833 
L 391.928595 96.766833 
L 395.207934 96.766833 
L 398.487273 96.766833 
" style="fill:none;stroke:#1f77b4;stroke-linecap:square;stroke-width:1.5;"/>
   </g>
   <g id="line2d_16">
    <path clip-path="url(#p13fcaa0e1a)" d="M 73.832727 96.766833 
L 77.112066 96.766833 
L 80.391405 96.766833 
L 83.670744 96.766833 
L 86.950083 96.766833 
L 90.229421 96.766833 
L 93.50876 96.766833 
L 96.788099 96.766833 
L 100.067438 96.766833 
L 103.346777 96.766833 
L 106.626116 96.766833 
L 109.905455 96.766833 
L 113.184793 96.766833 
L 116.464132 89.000863 
L 119.743471 72.438211 
L 123.02281 62.604335 
L 126.302149 56.388293 
L 129.581488 53.568 
L 132.860826 54.820823 
L 136.140165 62.86611 
L 139.419504 81.729815 
L 142.698843 85.043627 
L 145.978182 87.045108 
L 149.257521 88.468382 
L 152.53686 89.55756 
L 155.816198 90.428646 
L 159.095537 91.146594 
L 162.374876 91.751569 
L 165.654215 92.270155 
L 168.933554 92.720856 
L 172.212893 93.117059 
L 175.492231 93.468759 
L 178.77157 93.783611 
L 182.050909 94.06761 
L 185.330248 94.32554 
L 188.609587 94.561282 
L 191.888926 94.778035 
L 195.168264 94.978467 
L 198.447603 95.164839 
L 201.726942 95.339085 
L 205.006281 95.502879 
L 208.28562 95.65769 
L 211.564959 95.80482 
L 214.844298 95.945434 
L 218.123636 96.08059 
L 221.402975 96.211259 
L 224.682314 96.338343 
L 227.961653 96.462691 
L 231.240992 96.585111 
L 234.520331 96.706386 
L 237.799669 96.706386 
L 241.079008 96.585111 
L 244.358347 96.462691 
L 247.637686 96.338343 
L 250.917025 96.211259 
L 254.196364 96.08059 
L 257.475702 95.945434 
L 260.755041 95.80482 
L 264.03438 95.65769 
L 267.313719 95.502879 
L 270.593058 95.339085 
L 273.872397 95.164839 
L 277.151736 94.978467 
L 280.431074 94.778035 
L 283.710413 94.561282 
L 286.989752 94.32554 
L 290.269091 94.06761 
L 293.54843 93.783611 
L 296.827769 93.468759 
L 300.107107 93.117059 
L 303.386446 92.720856 
L 306.665785 92.270155 
L 309.945124 91.751569 
L 313.224463 91.146594 
L 316.503802 90.428646 
L 319.78314 89.55756 
L 323.062479 88.468382 
L 326.341818 87.045108 
L 329.621157 85.043627 
L 332.900496 81.729815 
L 336.179835 62.86611 
L 339.459174 54.820823 
L 342.738512 53.568 
L 346.017851 56.388293 
L 349.29719 62.604335 
L 352.576529 72.438211 
L 355.855868 89.000863 
L 359.135207 96.766833 
L 362.414545 96.766833 
L 365.693884 96.766833 
L 368.973223 96.766833 
L 372.252562 96.766833 
L 375.531901 96.766833 
L 378.81124 96.766833 
L 382.090579 96.766833 
L 385.369917 96.766833 
L 388.649256 96.766833 
L 391.928595 96.766833 
L 395.207934 96.766833 
L 398.487273 96.766833 
" style="fill:none;stroke:#ff7f0e;stroke-linecap:square;stroke-width:1.5;"/>
   </g>
   <g id="line2d_17">
    <path clip-path="url(#p13fcaa0e1a)" d="M 73.832727 96.766833 
L 77.112066 96.766833 
L 80.391405 96.766833 
L 83.670744 96.766833 
L 86.950083 96.766833 
L 90.229421 96.766833 
L 93.50876 96.766833 
L 96.788099 96.766833 
L 100.067438 96.766833 
L 103.346777 96.766833 
L 106.626116 96.766833 
L 109.905455 96.766833 
L 113.184793 96.766833 
L 116.464132 96.717334 
L 119.743471 96.034161 
L 123.02281 95.20493 
L 126.302149 94.431188 
L 129.581488 93.812457 
L 132.860826 93.432339 
L 136.140165 93.409421 
L 139.419504 94.086878 
L 142.698843 94.824643 
L 145.978182 95.443419 
L 149.257521 95.981845 
L 152.53686 96.459571 
L 155.816198 96.888677 
L 159.095537 97.277346 
L 162.374876 97.631465 
L 165.654215 97.95546 
L 168.933554 98.252757 
L 172.212893 98.526081 
L 175.492231 98.777636 
L 178.77157 99.009236 
L 182.050909 99.22239 
L 185.330248 99.418369 
L 188.609587 99.598249 
L 191.888926 99.762949 
L 195.168264 99.913258 
L 198.447603 100.049855 
L 201.726942 100.173323 
L 205.006281 100.284169 
L 208.28562 100.382825 
L 211.564959 100.469664 
L 214.844298 100.545003 
L 218.123636 100.609111 
L 221.402975 100.662208 
L 224.682314 100.704477 
L 227.961653 100.736057 
L 231.240992 100.757053 
L 234.520331 100.767534 
L 237.799669 100.767534 
L 241.079008 100.757053 
L 244.358347 100.736057 
L 247.637686 100.704477 
L 250.917025 100.662208 
L 254.196364 100.609111 
L 257.475702 100.545003 
L 260.755041 100.469664 
L 264.03438 100.382825 
L 267.313719 100.284169 
L 270.593058 100.173323 
L 273.872397 100.049855 
L 277.151736 99.913258 
L 280.431074 99.762949 
L 283.710413 99.598249 
L 286.989752 99.418369 
L 290.269091 99.22239 
L 293.54843 99.009236 
L 296.827769 98.777636 
L 300.107107 98.526081 
L 303.386446 98.252757 
L 306.665785 97.95546 
L 309.945124 97.631465 
L 313.224463 97.277346 
L 316.503802 96.888677 
L 319.78314 96.459571 
L 323.062479 95.981845 
L 326.341818 95.443419 
L 329.621157 94.824643 
L 332.900496 94.086878 
L 336.179835 93.409421 
L 339.459174 93.432339 
L 342.738512 93.812457 
L 346.017851 94.431188 
L 349.29719 95.20493 
L 352.576529 96.034161 
L 355.855868 96.717334 
L 359.135207 96.766833 
L 362.414545 96.766833 
L 365.693884 96.766833 
L 368.973223 96.766833 
L 372.252562 96.766833 
L 375.531901 96.766833 
L 378.81124 96.766833 
L 382.090579 96.766833 
L 385.369917 96.766833 
L 388.649256 96.766833 
L 391.928595 96.766833 
L 395.207934 96.766833 
L 398.487273 96.766833 
" style="fill:none;stroke:#2ca02c;stroke-linecap:square;stroke-width:1.5;"/>
   </g>
   <g id="line2d_18">
    <path clip-path="url(#p13fcaa0e1a)" d="M 73.832727 96.766833 
L 77.112066 96.766833 
L 80.391405 96.766833 
L 83.670744 96.766833 
L 86.950083 96.766833 
L 90.229421 96.766833 
L 93.50876 96.766833 
L 96.788099 96.766833 
L 100.067438 96.766833 
L 103.346777 96.766833 
L 106.626116 96.766833 
L 109.905455 96.766833 
L 113.184793 96.766833 
L 116.464132 96.715773 
L 119.743471 96.069998 
L 123.02281 95.356588 
L 126.302149 94.750283 
L 129.581488 94.323661 
L 132.860826 94.134266 
L 136.140165 94.272882 
L 139.419504 95.037458 
L 142.698843 95.752719 
L 145.978182 96.294301 
L 149.257521 96.723751 
L 152.53686 97.072371 
L 155.816198 97.359403 
L 159.095537 97.597881 
L 162.374876 97.797186 
L 165.654215 97.964364 
L 168.933554 98.104875 
L 172.212893 98.223058 
L 175.492231 98.322426 
L 178.77157 98.405867 
L 182.050909 98.475785 
L 185.330248 98.534204 
L 188.609587 98.582838 
L 191.888926 98.623153 
L 195.168264 98.656404 
L 198.447603 98.683671 
L 201.726942 98.705887 
L 205.006281 98.723855 
L 208.28562 98.738266 
L 211.564959 98.749714 
L 214.844298 98.758704 
L 218.123636 98.765662 
L 221.402975 98.770943 
L 224.682314 98.774833 
L 227.961653 98.777557 
L 231.240992 98.779283 
L 234.520331 98.780118 
L 237.799669 98.780118 
L 241.079008 98.779283 
L 244.358347 98.777557 
L 247.637686 98.774833 
L 250.917025 98.770943 
L 254.196364 98.765662 
L 257.475702 98.758704 
L 260.755041 98.749714 
L 264.03438 98.738266 
L 267.313719 98.723855 
L 270.593058 98.705887 
L 273.872397 98.683671 
L 277.151736 98.656404 
L 280.431074 98.623153 
L 283.710413 98.582838 
L 286.989752 98.534204 
L 290.269091 98.475785 
L 293.54843 98.405867 
L 296.827769 98.322426 
L 300.107107 98.223058 
L 303.386446 98.104875 
L 306.665785 97.964364 
L 309.945124 97.797186 
L 313.224463 97.597881 
L 316.503802 97.359403 
L 319.78314 97.072371 
L 323.062479 96.723751 
L 326.341818 96.294301 
L 329.621157 95.752719 
L 332.900496 95.037458 
L 336.179835 94.272882 
L 339.459174 94.134266 
L 342.738512 94.323661 
L 346.017851 94.750283 
L 349.29719 95.356588 
L 352.576529 96.069998 
L 355.855868 96.715773 
L 359.135207 96.766833 
L 362.414545 96.766833 
L 365.693884 96.766833 
L 368.973223 96.766833 
L 372.252562 96.766833 
L 375.531901 96.766833 
L 378.81124 96.766833 
L 382.090579 96.766833 
L 385.369917 96.766833 
L 388.649256 96.766833 
L 391.928595 96.766833 
L 395.207934 96.766833 
L 398.487273 96.766833 
" style="fill:none;stroke:#d62728;stroke-linecap:square;stroke-width:1.5;"/>
   </g>
   <g id="patch_3">
    <path d="M 57.6 307.584 
L 57.6 41.472 
" style="fill:none;stroke:#000000;stroke-linecap:square;stroke-linejoin:miter;stroke-width:0.8;"/>
   </g>
   <g id="patch_4">
    <path d="M 414.72 307.584 
L 414.72 41.472 
" style="fill:none;stroke:#000000;stroke-linecap:square;stroke-linejoin:miter;stroke-width:0.8;"/>
   </g>
   <g id="patch_5">
    <path d="M 57.6 307.584 
L 414.72 307.584 
" style="fill:none;stroke:#000000;stroke-linecap:square;stroke-linejoin:miter;stroke-width:0.8;"/>
   </g>
   <g id="patch_6">
    <path d="M 57.6 41.472 
L 414.72 41.472 
" style="fill:none;stroke:#000000;stroke-linecap:square;stroke-linejoin:miter;stroke-width:0.8;"/>
   </g>
   <g id="legend_1">
    <g id="patch_7">
     <path d="M 64.6 302.584 
L 128.885938 302.584 
Q 130.885938 302.584 130.885938 300.584 
L 130.885938 242.8715 
Q 130.885938 240.8715 128.885938 240.8715 
L 64.6 240.8715 
Q 62.6 240.8715 62.6 242.8715 
L 62.6 300.584 
Q 62.6 302.584 64.6 302.584 
z
" style="fill:#ffffff;opacity:0.8;stroke:#cccccc;stroke-linejoin:miter;"/>
    </g>
    <g id="line2d_19">
     <path d="M 66.6 248.969937 
L 86.6 248.969937 
" style="fill:none;stroke:#1f77b4;stroke-linecap:square;stroke-width:1.5;"/>
    </g>
    <g id="line2d_20"/>
    <g id="text_17">
     <!-- df/dr -->
     <defs>
      <path d="M 45.40625 46.390625 
L 45.40625 75.984375 
L 54.390625 75.984375 
L 54.390625 0 
L 45.40625 0 
L 45.40625 8.203125 
Q 42.578125 3.328125 38.25 0.953125 
Q 33.9375 -1.421875 27.875 -1.421875 
Q 17.96875 -1.421875 11.734375 6.484375 
Q 5.515625 14.40625 5.515625 27.296875 
Q 5.515625 40.1875 11.734375 48.09375 
Q 17.96875 56 27.875 56 
Q 33.9375 56 38.25 53.625 
Q 42.578125 51.265625 45.40625 46.390625 
z
M 14.796875 27.296875 
Q 14.796875 17.390625 18.875 11.75 
Q 22.953125 6.109375 30.078125 6.109375 
Q 37.203125 6.109375 41.296875 11.75 
Q 45.40625 17.390625 45.40625 27.296875 
Q 45.40625 37.203125 41.296875 42.84375 
Q 37.203125 48.484375 30.078125 48.484375 
Q 22.953125 48.484375 18.875 42.84375 
Q 14.796875 37.203125 14.796875 27.296875 
z
" id="DejaVuSans-100"/>
      <path d="M 37.109375 75.984375 
L 37.109375 68.5 
L 28.515625 68.5 
Q 23.6875 68.5 21.796875 66.546875 
Q 19.921875 64.59375 19.921875 59.515625 
L 19.921875 54.6875 
L 34.71875 54.6875 
L 34.71875 47.703125 
L 19.921875 47.703125 
L 19.921875 0 
L 10.890625 0 
L 10.890625 47.703125 
L 2.296875 47.703125 
L 2.296875 54.6875 
L 10.890625 54.6875 
L 10.890625 58.5 
Q 10.890625 67.625 15.140625 71.796875 
Q 19.390625 75.984375 28.609375 75.984375 
z
" id="DejaVuSans-102"/>
      <path d="M 25.390625 72.90625 
L 33.6875 72.90625 
L 8.296875 -9.28125 
L 0 -9.28125 
z
" id="DejaVuSans-47"/>
     </defs>
     <g transform="translate(94.6 252.469937)scale(0.1 -0.1)">
      <use xlink:href="#DejaVuSans-100"/>
      <use x="63.476562" xlink:href="#DejaVuSans-102"/>
      <use x="98.681641" xlink:href="#DejaVuSans-47"/>
      <use x="132.373047" xlink:href="#DejaVuSans-100"/>
      <use x="195.849609" xlink:href="#DejaVuSans-114"/>
     </g>
    </g>
    <g id="line2d_21">
     <path d="M 66.6 263.648062 
L 86.6 263.648062 
" style="fill:none;stroke:#ff7f0e;stroke-linecap:square;stroke-width:1.5;"/>
    </g>
    <g id="line2d_22"/>
    <g id="text_18">
     <!-- df/db -->
     <defs>
      <path d="M 48.6875 27.296875 
Q 48.6875 37.203125 44.609375 42.84375 
Q 40.53125 48.484375 33.40625 48.484375 
Q 26.265625 48.484375 22.1875 42.84375 
Q 18.109375 37.203125 18.109375 27.296875 
Q 18.109375 17.390625 22.1875 11.75 
Q 26.265625 6.109375 33.40625 6.109375 
Q 40.53125 6.109375 44.609375 11.75 
Q 48.6875 17.390625 48.6875 27.296875 
z
M 18.109375 46.390625 
Q 20.953125 51.265625 25.265625 53.625 
Q 29.59375 56 35.59375 56 
Q 45.5625 56 51.78125 48.09375 
Q 58.015625 40.1875 58.015625 27.296875 
Q 58.015625 14.40625 51.78125 6.484375 
Q 45.5625 -1.421875 35.59375 -1.421875 
Q 29.59375 -1.421875 25.265625 0.953125 
Q 20.953125 3.328125 18.109375 8.203125 
L 18.109375 0 
L 9.078125 0 
L 9.078125 75.984375 
L 18.109375 75.984375 
z
" id="DejaVuSans-98"/>
     </defs>
     <g transform="translate(94.6 267.148062)scale(0.1 -0.1)">
      <use xlink:href="#DejaVuSans-100"/>
      <use x="63.476562" xlink:href="#DejaVuSans-102"/>
      <use x="98.681641" xlink:href="#DejaVuSans-47"/>
      <use x="132.373047" xlink:href="#DejaVuSans-100"/>
      <use x="195.849609" xlink:href="#DejaVuSans-98"/>
     </g>
    </g>
    <g id="line2d_23">
     <path d="M 66.6 278.326187 
L 86.6 278.326187 
" style="fill:none;stroke:#2ca02c;stroke-linecap:square;stroke-width:1.5;"/>
    </g>
    <g id="line2d_24"/>
    <g id="text_19">
     <!-- df/du1 -->
     <defs>
      <path d="M 8.5 21.578125 
L 8.5 54.6875 
L 17.484375 54.6875 
L 17.484375 21.921875 
Q 17.484375 14.15625 20.5 10.265625 
Q 23.53125 6.390625 29.59375 6.390625 
Q 36.859375 6.390625 41.078125 11.03125 
Q 45.3125 15.671875 45.3125 23.6875 
L 45.3125 54.6875 
L 54.296875 54.6875 
L 54.296875 0 
L 45.3125 0 
L 45.3125 8.40625 
Q 42.046875 3.421875 37.71875 1 
Q 33.40625 -1.421875 27.6875 -1.421875 
Q 18.265625 -1.421875 13.375 4.4375 
Q 8.5 10.296875 8.5 21.578125 
z
M 31.109375 56 
z
" id="DejaVuSans-117"/>
     </defs>
     <g transform="translate(94.6 281.826187)scale(0.1 -0.1)">
      <use xlink:href="#DejaVuSans-100"/>
      <use x="63.476562" xlink:href="#DejaVuSans-102"/>
      <use x="98.681641" xlink:href="#DejaVuSans-47"/>
      <use x="132.373047" xlink:href="#DejaVuSans-100"/>
      <use x="195.849609" xlink:href="#DejaVuSans-117"/>
      <use x="259.228516" xlink:href="#DejaVuSans-49"/>
     </g>
    </g>
    <g id="line2d_25">
     <path d="M 66.6 293.004312 
L 86.6 293.004312 
" style="fill:none;stroke:#d62728;stroke-linecap:square;stroke-width:1.5;"/>
    </g>
    <g id="line2d_26"/>
    <g id="text_20">
     <!-- df/du2 -->
     <g transform="translate(94.6 296.504312)scale(0.1 -0.1)">
      <use xlink:href="#DejaVuSans-100"/>
      <use x="63.476562" xlink:href="#DejaVuSans-102"/>
      <use x="98.681641" xlink:href="#DejaVuSans-47"/>
      <use x="132.373047" xlink:href="#DejaVuSans-100"/>
      <use x="195.849609" xlink:href="#DejaVuSans-117"/>
      <use x="259.228516" xlink:href="#DejaVuSans-50"/>
     </g>
    </g>
   </g>
  </g>
 </g>
 <defs>
  <clipPath id="p13fcaa0e1a">
   <rect height="266.112" width="357.12" x="57.6" y="41.472"/>
  </clipPath>
 </defs>
</svg>
